<svg width="351" height="428" viewBox="0 0 351 428" fill="none" xmlns="http://www.w3.org/2000/svg">
<g filter="url(#filter0_d_1_78)">
<mask id="path-1-inside-1_1_78" fill="white">
<path d="M4.55084 14C4.55084 6.26801 10.8189 0 18.5508 0H332.326C340.058 0 346.326 6.26801 346.326 14V405.129C346.326 412.861 340.058 419.129 332.326 419.129H18.5508C10.8189 419.129 4.55084 412.861 4.55084 405.129V14Z"/>
</mask>
<path d="M4.55084 14C4.55084 6.26801 10.8189 0 18.5508 0H332.326C340.058 0 346.326 6.26801 346.326 14V405.129C346.326 412.861 340.058 419.129 332.326 419.129H18.5508C10.8189 419.129 4.55084 412.861 4.55084 405.129V14Z" fill="white"/>
<path d="M-22.4492 14C-22.4492 5.71573 -15.7334 -1 -7.44916 -1H332.326C340.611 -1 347.326 5.71573 347.326 14H345.326C345.326 6.8203 339.506 1 332.326 1H31.5508C31.5508 1 31.5508 6.8203 31.5508 14H-22.4492ZM347.326 405.129C347.326 413.413 340.611 420.129 332.326 420.129H-7.44916C-15.7334 420.129 -22.4492 413.413 -22.4492 405.129H31.5508C31.5508 412.308 31.5508 418.129 31.5508 418.129H332.326C339.506 418.129 345.326 412.308 345.326 405.129H347.326ZM-7.44916 420.129C-15.7334 420.129 -22.4492 413.413 -22.4492 405.129V14C-22.4492 5.71573 -15.7334 -1 -7.44916 -1L31.5508 1C31.5508 1 31.5508 6.8203 31.5508 14V405.129C31.5508 412.308 31.5508 418.129 31.5508 418.129L-7.44916 420.129ZM332.326 -1C340.611 -1 347.326 5.71573 347.326 14V405.129C347.326 413.413 340.611 420.129 332.326 420.129V418.129C339.506 418.129 345.326 412.308 345.326 405.129V14C345.326 6.8203 339.506 1 332.326 1V-1Z" fill="#D9D9D9" mask="url(#path-1-inside-1_1_78)"/>
<path d="M-22.4492 14C-22.4492 5.71573 -15.7334 -1 -7.44916 -1H332.326C340.611 -1 347.326 5.71573 347.326 14H345.326C345.326 6.8203 339.506 1 332.326 1H31.5508C31.5508 1 31.5508 6.8203 31.5508 14H-22.4492ZM347.326 405.129C347.326 413.413 340.611 420.129 332.326 420.129H-7.44916C-15.7334 420.129 -22.4492 413.413 -22.4492 405.129H31.5508C31.5508 412.308 31.5508 418.129 31.5508 418.129H332.326C339.506 418.129 345.326 412.308 345.326 405.129H347.326ZM-7.44916 420.129C-15.7334 420.129 -22.4492 413.413 -22.4492 405.129V14C-22.4492 5.71573 -15.7334 -1 -7.44916 -1L31.5508 1C31.5508 1 31.5508 6.8203 31.5508 14V405.129C31.5508 412.308 31.5508 418.129 31.5508 418.129L-7.44916 420.129ZM332.326 -1C340.611 -1 347.326 5.71573 347.326 14V405.129C347.326 413.413 340.611 420.129 332.326 420.129V418.129C339.506 418.129 345.326 412.308 345.326 405.129V14C345.326 6.8203 339.506 1 332.326 1V-1Z" fill="#D2D9F1" mask="url(#path-1-inside-1_1_78)"/>
</g>
<defs>
<filter id="filter0_d_1_78" x="0.550842" y="0" width="349.775" height="427.129" filterUnits="userSpaceOnUse" color-interpolation-filters="sRGB">
<feFlood flood-opacity="0" result="BackgroundImageFix"/>
<feColorMatrix in="SourceAlpha" type="matrix" values="0 0 0 0 0 0 0 0 0 0 0 0 0 0 0 0 0 0 127 0" result="hardAlpha"/>
<feOffset dy="4"/>
<feGaussianBlur stdDeviation="2"/>
<feComposite in2="hardAlpha" operator="out"/>
<feColorMatrix type="matrix" values="0 0 0 0 0 0 0 0 0 0 0 0 0 0 0 0 0 0 0.25 0"/>
<feBlend mode="normal" in2="BackgroundImageFix" result="effect1_dropShadow_1_78"/>
<feBlend mode="normal" in="SourceGraphic" in2="effect1_dropShadow_1_78" result="shape"/>
</filter>
</defs>
</svg>
