<?xml version="1.0" encoding="UTF-8"?><svg id="_レイヤー_11" xmlns="http://www.w3.org/2000/svg" viewBox="0 0 1218.21 491.05"><defs><style>.cls-1{fill:#1a264a;}.cls-2{fill:#40536c;}</style></defs><g><path class="cls-1" d="M3.48,456.09c0-.42-.15-.85-.43-1.22l-.05-.07-.07-.05c-.24-.18-.63-.43-1.16-.43-.46,0-.92,.18-1.23,.48-.35,.35-.55,.81-.55,1.29v8.57c1.14-.32,2.31-.57,3.48-.73v-7.83Z"/><path class="cls-1" d="M15.1,471.73c0,.54-.2,.98-.62,1.4-.44,.44-.96,.68-1.46,.68H5.56c-.54,0-1-.22-1.46-.68-.42-.42-.62-.87-.62-1.4v-7.82c-1.18,.16-2.34,.41-3.48,.73v7.08c0,1.53,.57,2.85,1.66,3.81,1.1,1.1,2.38,1.63,3.9,1.63h7.46c1.53,0,2.82-.55,3.85-1.65,1.04-.98,1.58-2.29,1.58-3.79v-5.6c-1.11-.42-2.22-.8-3.36-1.14v6.75Z"/><path class="cls-1" d="M18.03,454.86l-.03-.03-.03-.03c-.32-.32-.72-.48-1.17-.48s-.92,.18-1.23,.48l-.03,.03-.03,.03c-.28,.37-.43,.8-.43,1.22v8.9c1.14,.34,2.26,.73,3.36,1.14v-10.04c0-.42-.15-.85-.43-1.22Z"/><path class="cls-1" d="M22.55,489.34c0,.58,.19,1.01,.55,1.28,.37,.28,.82,.43,1.28,.43,.42,0,.85-.15,1.22-.43l.03-.03,.03-.03c.3-.3,.48-.76,.48-1.23v-20.04c-1.2-.49-2.4-1-3.61-1.51v21.55Z"/><path class="cls-1" d="M38.53,472.5c-.1,.16-.22,.32-.36,.48l-.02,.03c-.45,.57-1.12,.69-1.6,.69h-4.77c-.42,0-.85,.15-1.22,.43l-.07,.05-.05,.07c-.18,.24-.43,.63-.43,1.16,0,.42,.15,.85,.43,1.22l.05,.07,.07,.05c.37,.28,.8,.43,1.22,.43h4.77c1.65,0,3.03-.58,4.22-1.77,.85-.85,1.4-1.91,1.61-3.06-1.32,.16-2.6,.2-3.85,.15Z"/><path class="cls-1" d="M42.48,463.79c0-1.62-.55-3-1.69-4.21l-.03-.03c-1.21-1.14-2.59-1.69-4.21-1.69h-8.07c-1.62,0-3.12,.61-4.22,1.71-1.15,1.15-1.71,2.53-1.71,4.22v4c1.2,.51,2.4,1.02,3.61,1.51v-5.51c0-.75,.21-1.28,.65-1.68,.5-.45,1.09-.7,1.67-.7h8.07c.67,0,1.25,.23,1.62,.65l.02,.03c.44,.44,.68,1.03,.68,1.71v7.52c0,.43-.11,.81-.34,1.19,1.25,.05,2.53,.01,3.85-.15,.06-.34,.1-.69,.1-1.04v-7.52Z"/><path class="cls-1" d="M50.18,474.55c0,.58,.3,.91,.55,1.11,.29,.34,.74,.54,1.23,.54,.46,0,.91-.22,1.19-.57,.22-.22,.46-.55,.46-1.08v-5.87c-1.12,.52-2.26,1.03-3.42,1.49v4.38Z"/><path class="cls-1" d="M53.18,443.68l-.03-.03-.03-.03c-.29-.29-.75-.48-1.17-.48-.46,0-.92,.18-1.23,.48-.26,.26-.55,.59-.55,1.17v25.39c1.16-.47,2.3-.97,3.42-1.49v-23.9c0-.53-.25-.86-.43-1.1Z"/><path class="cls-1" d="M75.12,461.61v9.14c0,.62-.18,1.08-.55,1.46-.43,.43-.89,.62-1.52,.62h-13.51c-.46,0-.92,.18-1.23,.48-.35,.35-.55,.81-.55,1.29,0,.45,.22,.87,.61,1.16,.25,.18,.63,.43,1.16,.43h13.51c1.5,0,2.77-.51,3.9-1.57,1.08-1.01,1.6-2.27,1.6-3.87v-9.05c-1.13-.09-2.27-.13-3.42-.1Z"/><path class="cls-1" d="M76.95,444.7c-1.13-1.06-2.4-1.57-3.9-1.57h-13.51c-.46,0-.92,.18-1.23,.48-.26,.26-.55,.59-.55,1.17,0,.45,.17,.84,.52,1.2,.29,.36,.76,.57,1.26,.57h13.51c.64,0,1.09,.18,1.52,.62,.38,.38,.55,.84,.55,1.46v12.98c1.16-.03,2.3,0,3.42,.1v-13.08c0-1.59-.5-2.83-1.6-3.93Z"/><path class="cls-1" d="M100.37,475.4c0,1.04,.62,1.71,1.59,1.71,.53,0,.92-.24,1.16-.43,.38-.29,.61-.77,.61-1.28v-6.9c-1.13-.29-2.25-.61-3.36-.94v7.84Z"/><path class="cls-1" d="M102.16,456.89l-.02-.02-.02-.02c-1.17-1.03-2.48-1.56-3.89-1.56h-9.6c-1.53,0-2.79,.52-3.86,1.58-1.05,1.05-1.58,2.35-1.58,3.86v1.64c1.13,.23,2.25,.49,3.36,.79v-2.43c0-.6,.16-1.01,.57-1.48,.43-.42,.88-.6,1.51-.6h9.6c.64,0,1.09,.18,1.52,.62,.43,.43,.62,.88,.62,1.46v6.83c1.11,.34,2.23,.66,3.36,.94v-7.77c0-1.42-.54-2.74-1.57-3.84Z"/><path class="cls-1" d="M83.19,471.73c0,1.59,.54,2.87,1.6,3.81,1.06,1.06,2.32,1.57,3.84,1.57h6.72c.46,0,.92-.18,1.23-.48,.32-.32,.48-.72,.48-1.17s-.17-.85-.48-1.17c-.3-.3-.76-.48-1.23-.48h-6.72c-.58,0-1.05-.2-1.51-.66-.38-.43-.57-.9-.57-1.41v-8.57c-1.11-.3-2.23-.56-3.36-.79v9.36Z"/><path class="cls-1" d="M116.93,475.22c0,.47,.19,.87,.54,1.17,.3,.36,.7,.54,1.17,.54,.97,0,1.59-.67,1.59-1.71v-5.69c-1.09,.16-2.19,.28-3.3,.36v5.32Z"/><path class="cls-1" d="M120.29,460.24v-.61c0-.21,.13-.49,.31-.67s.46-.31,.67-.31h6.3c.53,0,.92-.24,1.16-.43l.03-.03,.03-.03c.29-.29,.48-.75,.48-1.17,0-.46-.18-.92-.48-1.23l-.03-.03-.03-.03c-.25-.18-.63-.43-1.16-.43h-6.3c-.16,0-.43-.09-.63-.33l-.02-.02-.02-.02c-.18-.18-.31-.46-.31-.67v-.61h-.06v-5.07c0-1.31-.82-1.77-1.59-1.77-.43,0-.82,.16-1.14,.46-.37,.3-.58,.76-.58,1.32v5.68c0,.21-.13,.49-.31,.67-.27,.27-.56,.37-.73,.37h-6.23c-.43,0-.82,.16-1.14,.46-.36,.29-.58,.76-.58,1.26,0,.46,.22,.91,.58,1.19,.31,.3,.7,.46,1.14,.46h6.23c.24,0,.46,.1,.67,.31l.02,.02,.02,.02c.24,.2,.33,.47,.33,.63v10.26c1.11-.08,2.21-.2,3.3-.36v-9.29h.06Z"/><path class="cls-1" d="M132.15,471.31c0,1.5,.61,2.94,1.69,4.03,1.17,1.24,2.56,1.84,4.23,1.84h7.95c.46,0,.86-.18,1.23-.55l.03-.03,.03-.03c.28-.37,.43-.8,.43-1.22,0-.53-.24-.92-.43-1.16l-.05-.07-.07-.05c-.24-.18-.63-.43-1.16-.43h-7.95c-.48,0-1.15-.12-1.6-.69l-.02-.03-.02-.02c-.46-.46-.68-.97-.68-1.58v-5.65c-1.21,.34-2.41,.69-3.61,1.03v4.61Z"/><path class="cls-1" d="M151.83,462.08v-.61c0-1.65-.58-3.03-1.77-4.22-1.12-1.12-2.56-1.71-4.16-1.71h-7.82c-1.62,0-3,.55-4.21,1.69l-.03,.03c-1.14,1.21-1.69,2.59-1.69,4.21v5.23c1.19-.34,2.4-.69,3.61-1.03v-4.2c0-.67,.23-1.25,.65-1.62l.03-.02,.02-.03c.37-.42,.95-.65,1.62-.65h7.82c.58,0,1.17,.25,1.67,.7,.42,.37,.65,.95,.65,1.62v.61c0,.57-.24,1.14-.67,1.57,0,0,0,0-.01,0,1.29,.14,2.54,.44,3.76,.83,.35-.74,.53-1.55,.53-2.41Z"/><path class="cls-1" d="M141.14,464.34c-.48,0-.94,.19-1.29,.55-.35,.35-.55,.81-.55,1.29,0,.57,.22,1.05,.61,1.34,.37,.28,.8,.43,1.22,.43h4.77c1.67,0,3.11-.59,4.16-1.71,.54-.54,.95-1.12,1.24-1.75-1.22-.39-2.46-.68-3.76-.83-.5,.44-1.08,.68-1.65,.68h-4.77Z"/></g><path class="cls-2" d="M65.08,461.54h-18.4c-1.04,0-1.88-.84-1.88-1.88s.84-1.88,1.88-1.88h18.4c1.04,0,1.88,.84,1.88,1.88s-.84,1.88-1.88,1.88Z"/></svg>