<?xml version="1.0" encoding="UTF-8"?><svg id="_レイヤー_1" xmlns="http://www.w3.org/2000/svg" xmlns:xlink="http://www.w3.org/1999/xlink" viewBox="0 0 74.18 73.31"><defs><style>.cls-1{fill:url(#_名称未設定グラデーション_59-2);}.cls-2{fill:#327abf;}.cls-3{fill:#f3fafe;}.cls-4{fill:url(#_名称未設定グラデーション_59);}.cls-5{fill:url(#_名称未設定グラデーション_537);}.cls-6{fill:#dbeffb;}.cls-7{fill:#bbe3f8;}.cls-8{fill:url(#_名称未設定グラデーション_69);}</style><linearGradient id="_名称未設定グラデーション_69" x1="20.3" y1="54.77" x2="8.03" y2="76.03" gradientUnits="userSpaceOnUse"><stop offset="0" stop-color="#bae3f9"/><stop offset="1" stop-color="#327abf"/></linearGradient><linearGradient id="_名称未設定グラデーション_537" x1="18.74" y1="61.62" x2="18.74" y2="69.74" gradientUnits="userSpaceOnUse"><stop offset="0" stop-color="#e4f4fd"/><stop offset=".36" stop-color="#e1f0f9"/><stop offset=".68" stop-color="#d9e7ee"/><stop offset=".97" stop-color="#cbd6dc"/><stop offset="1" stop-color="#cad5db"/></linearGradient><linearGradient id="_名称未設定グラデーション_59" x1="22.33" y1="10.65" x2="46.05" y2="51.72" gradientUnits="userSpaceOnUse"><stop offset="0" stop-color="#bae3f9"/><stop offset="1" stop-color="#3699d6"/></linearGradient><linearGradient id="_名称未設定グラデーション_59-2" x1="38.5" y1="21.21" x2="57.29" y2="53.75" xlink:href="#_名称未設定グラデーション_59"/></defs><path class="cls-8" d="M13.32,71.33c-.69,.65-1.61,1.03-2.5,1.32-.91,.3-1.85,.46-2.81,.58-.96,.09-1.94,.11-3-.06-1.09-.2-2.11-.58-3.09-1.33-.94-.73-1.84-1.95-1.91-3.5-.04-.76,.14-1.53,.46-2.17,.32-.65,.75-1.18,1.21-1.61,.46-.44,.96-.78,1.46-1.06,.24-.13,.5-.27,.82-.4,.3-.12,.59-.22,.86-.29,1.11-.29,2.1-.37,3.08-.44,3.85-.16,7.4,.32,10.91,.49,1.75,.09,3.45,.15,5.09-.15,1.8-.3,3.61-.73,5.49-.68-1.65,.81-3.23,1.72-4.87,2.54-1.8,.89-3.76,1.22-5.61,1.44-3.73,.41-7.42,.22-10.8,.37-.83,.03-1.65,.11-2.29,.27-.17,.03-.3,.08-.43,.12-.1,.03-.25,.1-.41,.17-.3,.14-.56,.31-.77,.47-.44,.34-.62,.65-.67,.92-.05,.28,.06,.74,.47,1.2,.38,.45,1.03,.87,1.68,1.15,.7,.28,1.53,.48,2.38,.63,.85,.16,1.72,.24,2.6,.28,.88,.03,1.77,.02,2.66-.23Z"/><g><path class="cls-5" d="M19.09,61.28c-.06,.11-.12,.22-.18,.34-1.76,3.25-3.23,6.02-4.45,8.38l.51,.5,8.05-5.51c-1.7-.74-3.18-2.06-3.93-3.71Z"/><path class="cls-7" d="M46.04,5.71c-3.13-2.01-6.18-3.53-8.32-4.49-.91,.65-1.77,1.34-2.6,2.06,4.6,1.13,9.19,2.35,13.53,4.17-.82-.56-1.68-1.14-2.61-1.73Z"/><path class="cls-4" d="M56.65,13.76c-2.04-1.91-4.58-3.97-8.01-6.32-4.34-1.82-8.93-3.04-13.53-4.17-3.46,2.99-6.33,6.56-8.93,10.34-1.75,3.63-2.9,6.61-3.71,9.21-.19,.6,.52,1.08,1.01,.69,1.87-1.48,5.24-4,9.26-6.39,.49,1.66,.8,3.54,.89,5.69,.61,14.66-9.69,30.85-14.47,38.36-.03,.05-.07,.09-.1,.15,.74,1.65,2.22,2.97,3.93,3.71l.33-.22c1.26-.99,2.31-1.88,4.33-3.77,3.08-2.88,8.01-7.54,12.23-14.62,1.37-2.3,3.13-5.25,4.52-9.57,2.74-8.5,1.98-15.81,1.51-19.93-.12-1.05-.27-2.06-.43-3.01,4.45,.12,8.38,.61,10.64,.96,.62,.09,.99-.67,.53-1.1Z"/><path class="cls-3" d="M37.72,1.21c-1.45-.65-2.49-1.06-2.86-1.2-.09-.03-.19,0-.25,.07-.26,.32-1,1.23-1.98,2.58,.83,.2,1.66,.4,2.49,.61,.83-.72,1.7-1.41,2.6-2.06Z"/><path class="cls-6" d="M32.63,2.66c-1.38,1.9-3.23,4.67-4.92,7.9-.56,1.06-1.06,2.08-1.53,3.04,2.6-3.77,5.47-7.34,8.93-10.34-.83-.2-1.66-.41-2.49-.61Z"/><path class="cls-1" d="M74.18,34.88c-.19-5.4-2.31-9.96-6.14-13.2-3.7-3.13-8.84-4.96-15.28-5.43-2.16-.16-4.09-.13-5.54-.06,.12,.95,.32,2.79,.48,5.43v.06c.1,1.52,.06,3.45-.11,5.75,8.24-.44,15.52,1.78,17.42,6.56,3.05,7.7-11.6,16.44-17.43,20.33-2.11,1.4-9.32,4.97-16.22,7.22l.83-.15c11.66-2.01,25.18-7.3,32.04-11.68,10.55-6.72,9.96-14.58,9.95-14.82Z"/></g><polygon class="cls-2" points="14.46 70 14.03 70.92 14.07 70.97 14.97 70.5 14.46 70"/></svg>