<svg id="案_" data-name="案１" xmlns="http://www.w3.org/2000/svg" viewBox="0 0 71.57 22.14"><defs><style>.cls-1,.cls-2{fill:#fff;}.cls-2{opacity:0.21;}</style></defs><g id="レイヤー_10" data-name="レイヤー 10"><polygon class="cls-1" points="8.41 10.52 8.41 0 0 0 0 22.14 8.41 22.14 8.41 14.89 8.41 14.89 8.41 10.52 8.41 10.52"/><polygon class="cls-1" points="20.86 22.14 12.42 12.24 19.64 0.12 14.53 0.12 8.41 10.52 8.41 14.89 14.56 22.14 20.86 22.14"/><path class="cls-1" d="M43.85,40.71l6.63-8a.26.26,0,0,0,.05-.29h0c-.23-.46-1.76-.45-2.72.51l-6,5.88c-.24,1.22-.7,2.32-.24,3.55l6.22,6.1c1,1,2.49,1,2.72.51h0a.26.26,0,0,0-.05-.29Z" transform="translate(-6.82 -29.38)"/><path class="cls-1" d="M41.83,38.82h0c.33-2.56-.22-5.36-1.09-6.24a5.37,5.37,0,0,0-6.43-.28,1.66,1.66,0,0,0-.61,2.39l6,5.88-6.17,6.09c-.6.58-.31,1.79.6,2.38a5.35,5.35,0,0,0,6.43-.28c.89-.89,1.45-3.79,1.07-6.39h0C41.13,41.14,41.59,40,41.83,38.82ZM39.5,47.24a3.34,3.34,0,0,1-3.92.68.45.45,0,0,1-.11-.72l4.75-4.68A9.06,9.06,0,0,1,39.5,47.24Zm.93-8.41-4.75-4.68a.45.45,0,0,1,.11-.72,3.33,3.33,0,0,1,3.92.68A8.8,8.8,0,0,1,40.43,38.83Z" transform="translate(-6.82 -29.38)"/><polygon class="cls-2" points="59.28 10.52 59.28 0 50.87 0 50.87 22.14 59.28 22.14 59.28 14.89 59.3 14.9 59.31 10.47 59.28 10.52"/><polyline class="cls-1" points="59.12 22.14 59.12 14.89 59.12 14.89 59.12 10.52 59.12 10.52 59.12 0 50.71 0 50.71 22.14"/><polygon class="cls-1" points="71.57 22.14 63.13 12.24 60.38 16.38 65.27 22.14 71.57 22.14"/><polygon class="cls-1" points="63.13 12.24 70.35 0.12 65.24 0.12 59.12 10.52 59.12 14.89 60.38 16.38 63.13 12.24 63.13 12.24"/></g></svg>