<?xml version="1.0" encoding="UTF-8"?><svg id="_案_" xmlns="http://www.w3.org/2000/svg" viewBox="0 0 724.63 522.04"><defs><style>.cls-1,.cls-2{fill:#fff;}.cls-2{opacity:.21;}</style></defs><g id="_レイヤー_10"><g><g><polygon class="cls-1" points="8.41 510.42 8.41 499.9 0 499.9 0 522.04 8.41 522.04 8.41 514.79 8.41 514.79 8.41 510.42 8.41 510.42"/><polygon class="cls-1" points="20.86 522.04 12.42 512.14 19.64 500.02 14.53 500.02 8.41 510.42 8.41 514.79 14.56 522.04 20.86 522.04"/><path class="cls-1" d="M37.03,511.23l6.63-7.98c.08-.08,.1-.2,.06-.29,0,0,0,0,0,0-.23-.46-1.76-.45-2.72,.51l-5.98,5.87c-.24,1.23-.7,2.32-.24,3.55l6.22,6.11c.96,.96,2.49,.97,2.72,.51,0,0,0,0,0,0,.05-.1,.02-.22-.06-.29l-6.63-7.98Z"/><path class="cls-1" d="M35.01,509.34h0c.33-2.56-.22-5.36-1.09-6.23-1.13-1.13-3.95-1.9-6.43-.28-.91,.59-1.2,1.8-.61,2.38l5.96,5.88-6.18,6.09c-.59,.58-.3,1.79,.61,2.38,2.48,1.62,5.3,.85,6.43-.28,.89-.9,1.45-3.79,1.07-6.4h0c-.46-1.23,0-2.32,.24-3.55Zm-2.33,8.42c-.68,.93-2.54,1.4-3.92,.68-.27-.14-.33-.5-.11-.72l4.75-4.68c.12,2.35-.28,4.12-.72,4.72Zm.93-8.41l-4.74-4.68c-.22-.21-.16-.58,.11-.72,1.38-.72,3.24-.25,3.92,.68,.43,.6,.83,2.37,.72,4.72Z"/></g><polygon class="cls-2" points="59.28 510.42 59.28 499.9 50.87 499.9 50.87 522.04 59.28 522.04 59.28 514.79 59.3 514.81 59.31 510.38 59.28 510.42"/><polyline class="cls-1" points="59.12 522.04 59.12 514.79 59.12 514.79 59.12 510.42 59.12 510.42 59.12 499.9 50.71 499.9 50.71 522.04"/><polygon class="cls-1" points="71.57 522.04 63.13 512.14 60.38 516.28 65.27 522.04 71.57 522.04"/><polygon class="cls-1" points="63.13 512.14 70.35 500.02 65.24 500.02 59.12 510.42 59.12 514.79 60.38 516.28 63.13 512.14 63.13 512.14"/></g></g></svg>