<svg width="351" height="428" viewBox="0 0 351 428" fill="none" xmlns="http://www.w3.org/2000/svg">
<g filter="url(#filter0_d_31_2)">
<mask id="path-1-inside-1_31_2" fill="white">
<path d="M4.77539 14C4.77539 6.26801 11.0434 0 18.7754 0H332.551C340.283 0 346.551 6.26801 346.551 14V405.129C346.551 412.861 340.283 419.129 332.551 419.129H18.7754C11.0434 419.129 4.77539 412.861 4.77539 405.129V14Z"/>
</mask>
<path d="M4.77539 14C4.77539 6.26801 11.0434 0 18.7754 0H332.551C340.283 0 346.551 6.26801 346.551 14V405.129C346.551 412.861 340.283 419.129 332.551 419.129H18.7754C11.0434 419.129 4.77539 412.861 4.77539 405.129V14Z" fill="white"/>
<path d="M-22.2246 14C-22.2246 5.71573 -15.5089 -1 -7.22461 -1H332.551C340.835 -1 347.551 5.71573 347.551 14H345.551C345.551 6.8203 339.73 1 332.551 1H31.7754C31.7754 1 31.7754 6.8203 31.7754 14H-22.2246ZM347.551 405.129C347.551 413.413 340.835 420.129 332.551 420.129H-7.22461C-15.5089 420.129 -22.2246 413.413 -22.2246 405.129H31.7754C31.7754 412.308 31.7754 418.129 31.7754 418.129H332.551C339.73 418.129 345.551 412.308 345.551 405.129H347.551ZM-7.22461 420.129C-15.5089 420.129 -22.2246 413.413 -22.2246 405.129V14C-22.2246 5.71573 -15.5089 -1 -7.22461 -1L31.7754 1C31.7754 1 31.7754 6.8203 31.7754 14V405.129C31.7754 412.308 31.7754 418.129 31.7754 418.129L-7.22461 420.129ZM332.551 -1C340.835 -1 347.551 5.71573 347.551 14V405.129C347.551 413.413 340.835 420.129 332.551 420.129V418.129C339.73 418.129 345.551 412.308 345.551 405.129V14C345.551 6.8203 339.73 1 332.551 1V-1Z" fill="#D9D9D9" mask="url(#path-1-inside-1_31_2)"/>
<path d="M-22.2246 14C-22.2246 5.71573 -15.5089 -1 -7.22461 -1H332.551C340.835 -1 347.551 5.71573 347.551 14H345.551C345.551 6.8203 339.73 1 332.551 1H31.7754C31.7754 1 31.7754 6.8203 31.7754 14H-22.2246ZM347.551 405.129C347.551 413.413 340.835 420.129 332.551 420.129H-7.22461C-15.5089 420.129 -22.2246 413.413 -22.2246 405.129H31.7754C31.7754 412.308 31.7754 418.129 31.7754 418.129H332.551C339.73 418.129 345.551 412.308 345.551 405.129H347.551ZM-7.22461 420.129C-15.5089 420.129 -22.2246 413.413 -22.2246 405.129V14C-22.2246 5.71573 -15.5089 -1 -7.22461 -1L31.7754 1C31.7754 1 31.7754 6.8203 31.7754 14V405.129C31.7754 412.308 31.7754 418.129 31.7754 418.129L-7.22461 420.129ZM332.551 -1C340.835 -1 347.551 5.71573 347.551 14V405.129C347.551 413.413 340.835 420.129 332.551 420.129V418.129C339.73 418.129 345.551 412.308 345.551 405.129V14C345.551 6.8203 339.73 1 332.551 1V-1Z" fill="#C0D4ED" mask="url(#path-1-inside-1_31_2)"/>
</g>
<defs>
<filter id="filter0_d_31_2" x="0.775391" y="0" width="349.775" height="427.129" filterUnits="userSpaceOnUse" color-interpolation-filters="sRGB">
<feFlood flood-opacity="0" result="BackgroundImageFix"/>
<feColorMatrix in="SourceAlpha" type="matrix" values="0 0 0 0 0 0 0 0 0 0 0 0 0 0 0 0 0 0 127 0" result="hardAlpha"/>
<feOffset dy="4"/>
<feGaussianBlur stdDeviation="2"/>
<feComposite in2="hardAlpha" operator="out"/>
<feColorMatrix type="matrix" values="0 0 0 0 0 0 0 0 0 0 0 0 0 0 0 0 0 0 0.25 0"/>
<feBlend mode="normal" in2="BackgroundImageFix" result="effect1_dropShadow_31_2"/>
<feBlend mode="normal" in="SourceGraphic" in2="effect1_dropShadow_31_2" result="shape"/>
</filter>
</defs>
</svg>
